{
  "accessors": [
    {
      "bufferView": 0,
      "componentType": 5125,
      "count": 29934,
      "type": "SCALAR"
    },
    {
      "bufferView": 1,
      "componentType": 5126,
      "count": 8345,
      "max": [
        0.09777779526656294,
        0.09820736318212775,
        0.01059999973222147
      ],
      "min": [
        -0.09777779526656305,
        -0.09820736318212771,
        -0.01059999973222147
      ],
      "type": "VEC3"
    },
    {
      "bufferView": 2,
      "componentType": 5126,
      "count": 8345,
      "max": [
        0.9999999950767051,
        0.9999999689959288,
        1.0
      ],
      "min": [
        -0.9999999999999977,
        -0.9999986732937112,
        -1.0
      ],
      "type": "VEC3"
    },
    {
      "bufferView": 3,
      "componentType": 5126,
      "count": 8345,
      "max": [
        0.9964869268889596,
        1.0
      ],
      "min": [
        0.0,
        0.0
      ],
      "type": "VEC2"
    }
  ],
  "asset": {
    "generator": "Adobe Illustrator",
    "version": "2.0"
  },
  "bufferViews": [
    {
      "buffer": 0,
      "byteLength": 119736,
      "target": 34963
    },
    {
      "buffer": 0,
      "byteLength": 100140,
      "byteOffset": 119736,
      "target": 34962
    },
    {
      "buffer": 0,
      "byteLength": 100140,
      "byteOffset": 219876,
      "target": 34962
    },
    {
      "buffer": 0,
      "byteLength": 66760,
      "byteOffset": 320016,
      "target": 34962
    }
  ],
  "buffers": [
    {
      "byteLength": 386776,
      "uri": "data:application/octet-stream;base64,"
    }
  ],
  "materials": [
    {
      "doubleSided": true,
      "pbrMetallicRoughness": {
        "baseColorFactor": [
          0.0,
          0.0,
          0.0,
          1.0
        ],
        "metallicFactor": 0.0,
        "roughnessFactor": 0.4000000059604645
      }
    }
  ],
  "meshes": [
    {
      "primitives": [
        {
          "attributes": {
            "NORMAL": 2,
            "POSITION": 1,
            "TEXCOORD_0": 3
          },
          "indices": 0,
          "material": 0,
          "mode": 4
        }
      ]
    }
  ],
  "nodes": [
    {
      "mesh": 0
    }
  ],
  "scenes": [
    {
      "nodes": [
        0
      ]
    }
  ]
}
